# xmcd
#
# Track frame offsets:
#	150
#	15262
#	29565
#	47946
#	63045
#	79561
#	98967
#	115907
#	132376
#	153407
#	166136
#	188781
#	207870
#	221802
#
# Disc length: 3124 seconds
#
# Revision: 6
# Processed by: cddbd v1.5.2PL0 Copyright (c) Steve Scherf et al.
# Submitted via: EZCDAudioConverter 2.4.0.1
#
DISCID=b80c320e
DTITLE=Rionegro and Solimões - Rionegro and Solimões - Gold
DYEAR=2002
DGENRE=Sertaneja
TTITLE0=Só Alegria
TTITLE1=Solidão e Saudade
TTITLE2=Lenha
TTITLE3=Vivendo Abandonado
TTITLE4=A gente se entrega
TTITLE5=Frio da madrugada
TTITLE6=Depois de você
TTITLE7=Casa cheia
TTITLE8=Só Lembranças
TTITLE9=Bate o pé
TTITLE10=Tocando em frente
TTITLE11=Laço da paixão
TTITLE12=Peão apaixonado
TTITLE13=Bobeou, ta na poeira
EXTD=
EXTT0=
EXTT1=
EXTT2=
EXTT3=
EXTT4=
EXTT5=
EXTT6=
EXTT7=
EXTT8=
EXTT9=
EXTT10=
EXTT11=
EXTT12=
EXTT13=
PLAYORDER=
